# 3ds Max Wavefront OBJ Exporter v0.97b - (c)2007 guruware
# 创建的文件:03.08.2017 01:13:18

mtllib arrow.mtl

#
# object Model
#

#
# object Component1
#

#
# object Mesh01
#

v  5.6619 1.5785 -0.1981
v  5.8557 0.1064 89.3914
v  5.8557 0.1064 -0.1981
v  5.6619 1.5785 89.3914
v  5.0937 2.9504 -0.1981
v  5.0937 2.9504 89.3914
v  4.1898 4.1284 -0.1981
v  4.1898 4.1284 89.3914
v  3.0117 5.0323 89.3914
v  3.0117 5.0323 -0.1981
v  1.6399 5.6006 89.3914
v  1.6399 5.6006 -0.1981
v  0.1677 5.7944 89.3914
v  0.1677 5.7944 -0.1981
v  -1.3044 5.6006 89.3914
v  -1.3044 5.6006 -0.1981
v  -2.6763 5.0323 89.3914
v  -2.6763 5.0323 -0.1981
v  -3.8543 4.1284 89.3914
v  -3.8543 4.1284 -0.1981
v  -4.7582 2.9504 -0.1981
v  -4.7582 2.9504 89.3914
v  -5.3265 1.5785 -0.1981
v  -5.3265 1.5785 89.3914
v  -5.5203 0.1064 -0.1981
v  -5.5203 0.1064 89.3914
v  -5.3265 -1.3658 -0.1981
v  -5.3265 -1.3658 89.3914
v  -4.7582 -2.7376 -0.1981
v  -4.7582 -2.7376 89.3914
v  -3.8543 -3.9156 -0.1981
v  -3.8543 -3.9156 89.3914
v  -2.6763 -4.8196 89.3914
v  -2.6763 -4.8196 -0.1981
v  -1.3044 -5.3878 89.3914
v  -1.3044 -5.3878 -0.1981
v  0.1677 -5.5816 89.3914
v  0.1677 -5.5816 -0.1981
v  1.6399 -5.3878 89.3914
v  1.6399 -5.3878 -0.1981
v  3.0117 -4.8196 89.3914
v  3.0117 -4.8196 -0.1981
v  4.1898 -3.9156 89.3914
v  4.1898 -3.9156 -0.1981
v  5.0937 -2.7376 -0.1981
v  5.0937 -2.7376 89.3914
v  5.6619 -1.3658 -0.1981
v  5.6619 -1.3658 89.3914
v  5.8557 -9.7455 89.3914
v  3.1121 -10.8820 89.3914
v  0.1677 -11.2696 89.3914
v  -2.7766 -10.8820 89.3914
v  -5.5203 -9.7455 89.3914
v  -5.5203 9.9583 89.3914
v  -7.8763 8.1504 89.3914
v  -7.8763 -7.9377 89.3914
v  -9.6842 5.7944 89.3914
v  -9.6842 -5.5816 89.3914
v  -10.8207 3.0507 89.3914
v  -10.8207 -2.8379 89.3914
v  -11.2083 0.1064 89.3914
v  0.1677 0.1064 124.5589
v  8.2118 -7.9377 89.3914
v  5.8557 9.9583 89.3914
v  3.1121 11.0948 89.3914
v  0.1677 11.4824 89.3914
v  -2.7766 11.0948 89.3914
v  8.2118 8.1504 89.3914
v  10.0197 5.7944 89.3914
v  11.1561 3.0507 89.3914
v  11.5438 0.1064 89.3914
v  11.1561 -2.8379 89.3914
v  10.0197 -5.5816 89.3914
# 73 vertices

vn 0.9914 0.1305 -0.0000
vn 0.9239 0.3827 -0.0000
vn 0.7934 0.6088 -0.0000
vn 0.6088 0.7934 -0.0000
vn 0.3827 0.9239 -0.0000
vn 0.1305 0.9914 -0.0000
vn -0.1305 0.9914 -0.0000
vn -0.3827 0.9239 -0.0000
vn -0.6088 0.7934 -0.0000
vn -0.7934 0.6088 -0.0000
vn -0.9239 0.3827 -0.0000
vn -0.9914 0.1305 -0.0000
vn -0.9914 -0.1305 -0.0000
vn -0.9239 -0.3827 -0.0000
vn -0.7934 -0.6088 -0.0000
vn -0.6088 -0.7934 -0.0000
vn -0.3827 -0.9239 -0.0000
vn -0.1305 -0.9914 -0.0000
vn 0.1305 -0.9914 -0.0000
vn 0.3827 -0.9239 -0.0000
vn 0.6088 -0.7934 -0.0000
vn 0.7934 -0.6088 -0.0000
vn 0.9239 -0.3827 -0.0000
vn 0.9914 -0.1305 -0.0000
vn 0.0000 0.0000 -1.0000
vn 0.0000 0.0000 -0.0000
vn -0.9441 -0.1243 0.3054
vn -0.8797 -0.3644 0.3054
vn -0.7555 -0.5797 0.3054
vn -0.5797 -0.7555 0.3054
vn -0.3644 -0.8797 0.3054
vn -0.1243 -0.9441 0.3054
vn 0.1243 -0.9441 0.3054
vn 0.3644 -0.8797 0.3054
vn 0.5797 -0.7555 0.3054
vn -0.3644 0.8797 0.3054
vn -0.1243 0.9441 0.3054
vn 0.1243 0.9441 0.3054
vn 0.3644 0.8797 0.3054
vn 0.5797 0.7555 0.3054
vn 0.7555 0.5797 0.3054
vn 0.8797 0.3644 0.3054
vn 0.9441 0.1243 0.3054
vn 0.9441 -0.1243 0.3054
vn 0.8797 -0.3644 0.3054
vn 0.7555 -0.5797 0.3054
vn -0.5797 0.7555 0.3054
vn -0.7555 0.5797 0.3054
vn -0.8797 0.3644 0.3054
vn -0.9441 0.1243 0.3054
# 50 vertex normals

vt 59.8206 0.7424 0.0000
vt -29.7690 -0.7424 0.0000
vt 59.8206 -0.7424 0.0000
vt -29.7690 0.7424 0.0000
vt -59.8206 0.7424 0.0000
vt 29.7690 -0.7424 0.0000
vt 29.7690 0.7424 0.0000
vt -59.8206 -0.7424 0.0000
vt -5.6880 -9.8519 0.0000
vt -5.4942 -1.4722 0.0000
vt -5.6880 0.0000 0.0000
vt -4.9260 -2.8440 0.0000
vt -4.0220 -4.0220 0.0000
vt -2.9443 -10.9884 0.0000
vt -2.8440 -4.9260 0.0000
vt -1.4722 -5.4942 0.0000
vt 0.0000 -5.6880 0.0000
vt 0.0000 -11.3760 0.0000
vt 1.4722 -5.4942 0.0000
vt 2.8440 -4.9260 0.0000
vt 2.9443 -10.9884 0.0000
vt 4.0220 -4.0220 0.0000
vt 4.9260 -2.8440 0.0000
vt 5.4942 -1.4722 0.0000
vt 5.6880 -9.8519 0.0000
vt 5.6880 0.0000 0.0000
vt 5.6880 9.8519 0.0000
vt 8.0441 8.0441 0.0000
vt 8.0441 -8.0441 0.0000
vt 9.8519 5.6880 0.0000
vt 9.8519 -5.6880 0.0000
vt 10.9884 2.9443 0.0000
vt 10.9884 -2.9443 0.0000
vt 11.3760 0.0000 0.0000
vt 24.8226 2.4841 0.0000
vt 24.9419 -0.4833 0.0000
vt 61.7842 2.4841 0.0000
vt 61.3453 7.7600 0.0000
vt 24.5191 4.5983 0.0000
vt 24.8918 1.6521 0.0000
vt 60.2033 14.1078 0.0000
vt 23.9068 7.1273 0.0000
vt 24.5843 4.2359 0.0000
vt 57.4512 22.8653 0.0000
vt 22.5881 10.5881 0.0000
vt 23.6863 7.8289 0.0000
vt 49.7695 36.6942 0.0000
vt 19.1624 15.9729 0.0000
vt 20.9247 13.5826 0.0000
vt 24.4786 56.7826 0.0000
vt 8.4946 23.4558 0.0000
vt 11.2218 22.2801 0.0000
vt -24.4786 56.7826 0.0000
vt -11.2218 22.2801 0.0000
vt -8.4946 23.4558 0.0000
vt -49.7695 36.6942 0.0000
vt -20.9247 13.5826 0.0000
vt -19.1624 15.9729 0.0000
vt -57.4512 22.8653 0.0000
vt -23.6863 7.8289 0.0000
vt -22.5881 10.5881 0.0000
vt -8.0441 -8.0441 0.0000
vt -5.6880 9.8519 0.0000
vt -5.4942 1.4722 0.0000
vt -4.9260 2.8440 0.0000
vt -4.0220 4.0220 0.0000
vt -2.9443 10.9884 0.0000
vt -2.8440 4.9260 0.0000
vt -1.4722 5.4942 0.0000
vt -0.0000 11.3760 0.0000
vt -0.0000 5.6880 0.0000
vt 1.4722 5.4942 0.0000
vt 2.8440 4.9260 0.0000
vt 2.9443 10.9884 0.0000
vt 4.0220 4.0220 0.0000
vt 4.9260 2.8440 0.0000
vt 5.4942 1.4722 0.0000
vt 49.7695 -36.6942 0.0000
vt 20.9247 -13.5826 0.0000
vt 19.1624 -15.9729 0.0000
vt 24.4786 -56.7826 0.0000
vt 11.2218 -22.2801 0.0000
vt 8.4946 -23.4558 0.0000
vt -24.4786 -56.7826 0.0000
vt -8.4946 -23.4558 0.0000
vt -11.2218 -22.2801 0.0000
vt -49.7695 -36.6942 0.0000
vt -19.1624 -15.9729 0.0000
vt -20.9247 -13.5826 0.0000
vt -57.4512 -22.8653 0.0000
vt -22.5881 -10.5881 0.0000
vt -23.6863 -7.8289 0.0000
vt -24.5843 -4.2359 0.0000
vt -60.2033 -14.1078 0.0000
vt -23.9068 -7.1273 0.0000
vt -24.8918 -1.6521 0.0000
vt -61.3453 -7.7600 0.0000
vt -24.5191 -4.5983 0.0000
vt -24.9419 0.4833 0.0000
vt -61.7842 -2.4841 0.0000
vt -24.8226 -2.4841 0.0000
vt -61.7842 2.4841 0.0000
vt -24.9419 -0.4833 0.0000
vt -24.8226 2.4841 0.0000
vt -61.3453 7.7600 0.0000
vt -24.8918 1.6521 0.0000
vt -24.5191 4.5983 0.0000
vt -60.2033 14.1078 0.0000
vt -24.5843 4.2359 0.0000
vt -23.9068 7.1273 0.0000
vt -8.0441 8.0441 0.0000
vt -9.8519 -5.6880 0.0000
vt -9.8519 5.6880 0.0000
vt -10.9884 -2.9443 0.0000
vt -10.9884 2.9443 0.0000
vt -11.3760 0.0000 0.0000
vt 57.4512 -22.8653 0.0000
vt 23.6863 -7.8289 0.0000
vt 22.5881 -10.5881 0.0000
vt 24.5843 -4.2359 0.0000
vt 23.9068 -7.1273 0.0000
vt 60.2033 -14.1078 0.0000
vt 24.8918 -1.6521 0.0000
vt 24.5191 -4.5983 0.0000
vt 61.3453 -7.7600 0.0000
vt 24.9419 0.4833 0.0000
vt 24.8226 -2.4841 0.0000
vt 61.7842 -2.4841 0.0000
# 128 texture coords

g Mesh01
usemtl Color_F0
s 1
f 1/1/1 2/2/1 3/3/1 
f 2/2/1 1/1/1 4/4/1 
f 5/1/2 4/2/2 1/3/2 
f 4/2/2 5/1/2 6/4/2 
f 7/1/3 6/2/3 5/3/3 
f 6/2/3 7/1/3 8/4/3 
f 7/3/4 9/4/4 8/2/4 
f 9/4/4 7/3/4 10/1/4 
f 10/3/5 11/4/5 9/2/5 
f 11/4/5 10/3/5 12/1/5 
f 12/3/6 13/4/6 11/2/6 
f 13/4/6 12/3/6 14/1/6 
f 14/5/7 15/6/7 13/7/7 
f 15/6/7 14/5/7 16/8/7 
f 16/5/8 17/6/8 15/7/8 
f 17/6/8 16/5/8 18/8/8 
f 18/5/9 19/6/9 17/7/9 
f 19/6/9 18/5/9 20/8/9 
f 21/8/10 19/7/10 20/5/10 
f 19/7/10 21/8/10 22/6/10 
f 23/8/11 22/7/11 21/5/11 
f 22/7/11 23/8/11 24/6/11 
f 25/8/12 24/7/12 23/5/12 
f 24/7/12 25/8/12 26/6/12 
f 27/8/13 26/7/13 25/5/13 
f 26/7/13 27/8/13 28/6/13 
f 29/8/14 28/7/14 27/5/14 
f 28/7/14 29/8/14 30/6/14 
f 31/8/15 30/7/15 29/5/15 
f 30/7/15 31/8/15 32/6/15 
f 31/5/16 33/6/16 32/7/16 
f 33/6/16 31/5/16 34/8/16 
f 34/5/17 35/6/17 33/7/17 
f 35/6/17 34/5/17 36/8/17 
f 36/5/18 37/6/18 35/7/18 
f 37/6/18 36/5/18 38/8/18 
f 38/3/19 39/4/19 37/2/19 
f 39/4/19 38/3/19 40/1/19 
f 40/3/20 41/4/20 39/2/20 
f 41/4/20 40/3/20 42/1/20 
f 42/3/21 43/4/21 41/2/21 
f 43/4/21 42/3/21 44/1/21 
f 45/1/22 43/2/22 44/3/22 
f 43/2/22 45/1/22 46/4/22 
f 47/1/23 46/2/23 45/3/23 
f 46/2/23 47/1/23 48/4/23 
f 3/1/24 48/2/24 47/3/24 
f 48/2/24 3/1/24 2/4/24 
s off
f 49/9/25 48/10/25 2/11/25 
f 49/9/25 46/12/25 48/10/25 
f 49/9/25 43/13/25 46/12/25 
f 50/14/25 43/13/25 49/9/25 
f 50/14/25 41/15/25 43/13/25 
f 50/14/25 39/16/25 41/15/25 
f 50/14/25 37/17/25 39/16/25 
f 51/18/25 37/17/25 50/14/25 
f 51/18/25 35/19/25 37/17/25 
f 51/18/25 33/20/25 35/19/25 
f 52/21/25 33/20/25 51/18/25 
f 52/21/25 32/22/25 33/20/25 
f 52/21/25 30/23/25 32/22/25 
f 52/21/25 28/24/25 30/23/25 
f 53/25/25 28/24/25 52/21/25 
f 28/24/25 53/25/25 26/26/25 
f 53/25/26 54/27/26 26/26/26 
f 53/25/25 55/28/25 54/27/25 
f 56/29/25 55/28/25 53/25/25 
f 56/29/25 57/30/25 55/28/25 
f 58/31/25 57/30/25 56/29/25 
f 58/31/25 59/32/25 57/30/25 
f 60/33/25 59/32/25 58/31/25 
f 59/32/25 60/33/25 61/34/25 
s 1
f 61/35/27 60/36/27 62/37/27 
f 62/38/28 60/39/28 58/40/28 
f 62/41/29 58/42/29 56/43/29 
f 62/44/30 56/45/30 53/46/30 
f 62/47/31 53/48/31 52/49/31 
f 62/50/32 52/51/32 51/52/32 
f 62/53/33 51/54/33 50/55/33 
f 62/56/34 50/57/34 49/58/34 
f 62/59/35 49/60/35 63/61/35 
s off
f 49/9/25 2/11/25 63/62/25 
f 63/62/25 2/11/25 64/63/25 
f 4/64/25 64/63/25 2/11/25 
f 6/65/25 64/63/25 4/64/25 
f 8/66/25 64/63/25 6/65/25 
f 8/66/25 65/67/25 64/63/25 
f 9/68/25 65/67/25 8/66/25 
f 11/69/25 65/67/25 9/68/25 
f 11/69/25 66/70/25 65/67/25 
f 13/71/25 66/70/25 11/69/25 
f 15/72/25 66/70/25 13/71/25 
f 17/73/25 66/70/25 15/72/25 
f 17/73/25 67/74/25 66/70/25 
f 19/75/25 67/74/25 17/73/25 
f 22/76/25 67/74/25 19/75/25 
f 24/77/25 67/74/25 22/76/25 
f 24/77/25 54/27/25 67/74/25 
f 26/26/25 54/27/25 24/77/25 
s 1
f 62/78/36 67/79/36 54/80/36 
f 62/81/37 66/82/37 67/83/37 
f 62/84/38 65/85/38 66/86/38 
f 62/87/39 64/88/39 65/89/39 
f 62/90/40 68/91/40 64/92/40 
f 68/93/41 62/94/41 69/95/41 
f 69/96/42 62/97/42 70/98/42 
f 70/99/43 62/100/43 71/101/43 
f 62/102/44 72/103/44 71/104/44 
f 62/105/45 73/106/45 72/107/45 
f 62/108/46 63/109/46 73/110/46 
s off
f 63/62/25 68/111/25 73/112/25 
f 63/62/25 64/63/25 68/111/25 
f 73/112/25 68/111/25 69/113/25 
f 73/112/25 69/113/25 72/114/25 
f 72/114/25 69/113/25 70/115/25 
f 72/114/25 70/115/25 71/116/25 
s 1
f 62/117/47 54/118/47 55/119/47 
f 55/120/48 57/121/48 62/122/48 
f 57/123/49 59/124/49 62/125/49 
f 59/126/50 61/127/50 62/128/50 
# 120 faces

#
# object Mesh02
#

v  89.3914 0.1064 -0.0294
v  89.3914 0.1064 -0.3061
v  117.0663 0.1064 -0.3061
v  117.0663 0.1064 -0.0294
# 4 vertices

vn 0.0000 -1.0000 -0.0000
# 1 vertex normals

vt 0.0000 0.0000 0.0000
vt 1.0000 1.0000 0.0000
# 2 texture coords

g Mesh02
usemtl Foregrou
s off
f 74/129/51 75/129/51 76/130/51 
f 76/129/51 77/130/51 74/129/51 
# 2 faces

